<svg width="223" height="41" viewBox="0 0 223 41" fill="none" xmlns="http://www.w3.org/2000/svg">
<g id="logo 1" clip-path="url(#clip0_215_52)">
<g id="Group">
<g id="Group_2">
<path id="Vector" d="M72.6238 1.04297H55.1555L55.0068 3.65206H62.4402V18.1139H65.2648V3.65206H72.6982L72.6238 1.04297Z" fill="#512D6D"/>
<path id="Vector_2" d="M100.053 14.9097C99.0119 15.5806 97.4509 15.9533 95.8156 15.9533C92.0989 15.9533 90.2406 14.3879 90.2406 11.3315C90.2406 8.27513 92.0246 6.85876 95.8156 6.85876C97.2279 6.85876 98.7146 7.15695 99.9039 7.67876L100.424 7.9024L100.647 5.4424L100.35 5.29331C98.8632 4.69695 97.1536 4.32422 95.4439 4.32422C90.3892 4.32422 87.4902 6.85876 87.4902 11.2569C87.4902 15.7297 90.3892 18.2642 95.3696 18.2642C97.3022 18.2642 99.2349 17.7424 100.573 16.9224L100.796 16.7733L100.499 14.3879L100.053 14.9097Z" fill="#512D6D"/>
<path id="Vector_3" d="M111.426 4.39786C109.419 4.39786 107.635 4.99422 106.223 6.03786V5.21786V0.0742188L103.621 0.297855V18.0397H106.223V8.64695C107.04 7.7524 108.824 6.85786 110.906 6.85786C114.028 6.85786 115.514 8.05058 115.514 10.5106V18.0397H118.116V10.5106C118.19 6.55967 115.737 4.39786 111.426 4.39786Z" fill="#512D6D"/>
<path id="Vector_4" d="M128.968 4.39844C126.887 4.39844 124.88 5.06935 123.542 6.11298L123.244 4.54753L121.163 4.77116V18.1148H123.765V8.64753C124.805 7.4548 126.887 6.85844 128.448 6.85844C131.644 6.85844 133.056 8.05117 133.056 10.5112V18.0403H135.658V10.5112C135.732 6.56026 133.354 4.39844 128.968 4.39844Z" fill="#512D6D"/>
<path id="Vector_5" d="M138.854 18.1138H141.456V17.3684V4.62109L138.854 4.77018V18.1138Z" fill="#512D6D"/>
<path id="Vector_6" d="M153.053 4.39844C150.748 4.39844 148.816 4.9948 147.329 6.11298L146.957 4.62207L144.95 4.84571V21.3948H147.701V17.6675V16.8475C148.964 17.8912 150.748 18.413 152.904 18.413C157.884 18.413 160.709 15.953 160.709 11.4057C160.635 6.85844 158.033 4.39844 153.053 4.39844ZM157.959 11.4803C157.959 14.5366 156.175 16.0275 152.458 16.0275C149.708 16.0275 148.295 14.9839 147.626 14.2384V8.64753C148.816 7.4548 150.451 6.85844 152.681 6.85844C156.249 6.93298 157.959 8.42389 157.959 11.4803Z" fill="#512D6D"/>
<path id="Vector_7" d="M192.672 14.7593L184.272 1.04297H181.299V18.1139H183.9V5.66479V5.44115L191.706 18.1139H193.638L201.295 5.5157L201.443 5.3666V18.1139H204.045V1.04297H201.146L192.672 14.7593Z" fill="#512D6D"/>
<path id="Vector_8" d="M222.554 14.537L222.034 14.7606C220.399 15.5061 218.615 15.8788 216.905 15.8788C211.553 15.8788 209.249 14.0152 209.249 9.54246C209.249 5.29337 211.553 3.35518 216.756 3.35518C218.54 3.35518 220.547 3.72791 222.034 4.24973L222.554 4.47337L222.926 1.93882L222.629 1.78973C221.365 1.26791 218.986 0.746094 216.756 0.746094C208.134 0.746094 206.35 5.517 206.35 9.46791C206.35 15.2825 209.918 18.4134 216.682 18.4134C219.061 18.4134 221.365 17.7425 222.703 17.0715L223 16.9225L222.554 14.537Z" fill="#512D6D"/>
<path id="Vector_9" d="M176.393 8.19933H166.209V3.7266H178.474L178.4 1.04297H163.459L163.385 18.1139H166.209V10.8084H176.467L176.393 8.19933Z" fill="#512D6D"/>
<path id="Vector_10" d="M78.6447 4.39844C73.9617 4.39844 70.9141 7.00753 70.9141 10.9584C70.9141 14.313 72.4007 18.3384 79.4624 18.3384C81.6924 18.3384 83.5507 17.8912 85.3347 16.9966L85.6321 16.8475L85.2604 14.6112L84.7401 14.9093C83.0304 15.6548 81.3951 16.0275 79.6111 16.0275C76.0431 16.0275 74.0361 14.8348 73.6644 12.4493H85.9294L86.0781 11.7039C86.1524 11.4803 86.1524 11.1075 86.1524 10.8839C86.1524 7.00753 83.1047 4.39844 78.6447 4.39844ZM73.5901 9.9148C73.9617 7.90207 75.7457 6.78389 78.6447 6.78389C81.3951 6.78389 83.2534 7.97662 83.5507 9.9148H73.5901Z" fill="#512D6D"/>
<path id="Vector_11" d="M140.193 2.98182C141.014 2.98182 141.679 2.31432 141.679 1.49091C141.679 0.667503 141.014 0 140.193 0C139.372 0 138.706 0.667503 138.706 1.49091C138.706 2.31432 139.372 2.98182 140.193 2.98182Z" fill="#512D6D"/>
</g>
<g id="Group_3">
<path id="Vector_12" d="M23.415 25.9416V40.0307C23.415 40.9252 24.4557 41.3725 25.1247 40.7016L42.9647 22.7362C43.5594 22.1398 43.5594 21.2452 42.9647 20.6489L35.7544 13.418L23.415 25.9416Z" fill="#CB2C30"/>
<path id="Vector_13" d="M45.7894 1.04297H23.415L35.8287 13.4921L46.4584 2.75751C47.1274 2.16115 46.6814 1.04297 45.7894 1.04297Z" fill="#00A3E0"/>
<path id="Vector_14" d="M23.4144 25.9411V1.04297H0.965721C0.0737204 1.04297 -0.37228 2.08661 0.296721 2.75751L23.4144 25.9411Z" fill="#00A3E0"/>
<path id="Vector_15" d="M35.7544 13.4921L23.415 1.04297V25.9411L35.7544 13.4921Z" fill="#512D6D"/>
</g>
</g>
</g>
<defs>
<clipPath id="clip0_215_52">
<rect width="223" height="41" fill="white"/>
</clipPath>
</defs>
</svg>
